<svg xmlns="http://www.w3.org/2000/svg" width="1024" height="1024" viewBox="149.75570678710938 4 724.2003173828125 1015.7890014648438" class="colorable-icon" data-export-recolorable-svg="true" overflow="visible"><g fill="none" stroke="black" stroke-width="45" stroke-linecap="round" stroke-linejoin="round"><path d="M 318.899,273.464 C 281.753,328.134 250.365,376.393 223.636,420.166 C 205.392,453.343 189.19,486.764 170.74,533.083 Q 161.515,564.2 155.559,592.145" data-line="nan" stroke-width="45.0"></path><path d="M 408.53,1004.487 C 436.026,1011.771 465.891,1016.866 502.508,1019.789 C 523.14,1019.506 557.231,1016.517 591.399,1010.226 Q 619.244,1002.525 651.239,990.421" data-line="nan" stroke-width="45.0"></path><path d="M 853.609,536.461 C 844.372,510.901 832.575,483.093 821.818,460.336 C 807.569,433.346 768.123,367.855 735.251,318.042" data-line="nan" stroke-width="45.0"></path><path d="M 534.331,34.692 L 511.843,4.0" data-line="nan" stroke-width="45.0"></path><path d="M 491.555,31.998 L 511.843,4.0" data-line="1.0" stroke-width="45.0"></path><path d="M 155.51131682229982,592.1364064156623 A 363.01809904781544,363.01809904781544 0 0,0 408.5945909324012,1004.2713966988983" data-line="2.0" stroke-width="45.0"></path><path d="M 651.1141876133622,990.1303423149786 A 372.5153797878974,372.5153797878974 0 0,0 861.983128083276,751.3215602663395" data-line="4.0" stroke-width="45.0"></path><path d="M 861.708,751.242 L 873.827,651.621" data-line="5.0" stroke-width="45.0"></path><path d="M 491.555,31.998 L 318.899,273.464" data-line="5.0" stroke-width="45.0"></path><path d="M 873.9559828886954,651.6182709487141 A 378.67190376299067,378.67190376299067 0 0,0 853.4668578237803,536.5098702788958" data-line="6.0" stroke-width="45.0"></path><path d="M 735.251,318.042 L 534.331,34.692" data-line="9.0" stroke-width="45.0"></path></g></svg>