<svg xmlns="http://www.w3.org/2000/svg" width="1024" height="1024" viewBox="4 84.56099700927734 1016 856.1719970703125" class="colorable-icon" data-export-recolorable-svg="true" overflow="visible"><g fill="none" stroke="black" stroke-width="45" stroke-linecap="round" stroke-linejoin="round"><path d="M 343.488,290.405 C 337.076,335.853 336.219,350.685 337.101,365.033 C 338.549,374.6 341.926,388.866 345.178,398.051 C 352.565,412.6 364.03,429.092 376.427,443.502 Q 405.061,473.067 437.631,516.27" data-line="nan" stroke-width="45.0"></path><path d="M 488.545,84.561 C 496.623,131.254 498.338,147.785 498.129,169.402 C 496.411,183.682 494.014,195.397 488.063,214.892 C 477.786,238.926 470.288,253.546 445.959,296.298 C 433.272,322.792 425.441,345.974 421.307,369.839 C 420.121,384.091 421.275,407.938 425.312,434.382 Q 434.036,474.7 433.0,499.293" data-line="nan" stroke-width="45.0"></path><path d="M 343.488,290.405 C 318.793,320.154 308.956,330.283 289.551,358.792 C 281.826,372.941 275.117,389.133 270.691,403.537 C 267.606,418.559 266.054,441.315 267.92,461.156 C 274.732,490.094 289.56,534.063 294.028,550.948 Q 296.389,568.153 295.961,589.741" data-line="nan" stroke-width="45.0"></path><path d="M 702.17,315.925 C 674.367,346.47 657.078,368.678 647.222,385.283 C 638.445,404.598 632.854,420.931 630.003,437.349 C 629.545,456.199 631.597,482.064 627.789,507.945" data-line="nan" stroke-width="45.0"></path><path d="M 738.502,588.503 C 748.765,568.012 753.429,553.201 756.205,533.996 C 755.558,514.662 752.833,500.201 746.159,480.92 C 738.939,466.636 717.391,428.468 709.373,409.51 C 704.888,395.237 701.895,381.081 700.635,366.593 L 702.17,315.925" data-line="nan" stroke-width="45.0"></path><path d="M 854.72,804.852 C 845.756,788.451 837.891,776.559 828.055,764.071 C 817.95,752.823 805.657,740.991 791.105,728.771 C 774.747,716.798 757.799,705.928 741.052,696.476 C 722.971,687.671 685.161,672.725 645.994,661.157 L 600.54,651.796" data-line="nan" stroke-width="45.0"></path><path d="M 856.112,807.429 C 843.471,826.8 833.728,839.995 825.245,849.641 C 810.749,863.462 796.123,875.05 781.533,884.779 C 767.412,892.935 748.263,902.476 728.898,910.628 C 710.037,917.295 690.809,922.939 666.988,928.508 C 619.328,936.116 590.696,938.969 562.078,940.733" data-line="nan" stroke-width="45.0"></path><path d="M 579.761,433.985 C 575.246,422.305 572.234,410.008 571.156,400.624 C 570.888,384.068 572.138,364.73 584.004,301.005 C 586.768,279.218 587.088,264.804 586.35,250.45 C 584.582,236.28 581.59,221.933 577.27,207.425 C 570.314,190.228 561.766,173.663 551.368,157.042 Q 531.435,131.237 488.545,84.561" data-line="nan" stroke-width="45.0"></path><path d="M 392.198,657.822 C 354.636,667.845 315.507,681.724 282.065,697.339 C 253.602,714.364 224.497,736.418 212.068,747.709 C 200.491,759.611 190.389,771.656 182.167,783.414 Q 176.792,792.991 171.665,804.974" data-line="nan" stroke-width="45.0"></path><path d="M 428.571,938.298 C 380.904,932.099 337.947,922.989 299.688,911.326 C 280.756,903.887 266.504,897.317 247.626,887.234 C 233.313,878.375 218.928,867.919 209.664,860.04 C 196.054,846.463 188.05,837.044 169.384,810.309" data-line="nan" stroke-width="45.0"></path><path d="M 432.80396950728414,499.3603994397215 A 133.87967464101274,133.87967464101274 0 0,1 439.6771100971427,553.245472883565" data-line="3.0" stroke-width="45.0"></path><path d="M 630.286,523.872 L 579.761,433.985" data-line="4.0" stroke-width="45.0"></path><path d="M 628.0019697906247,555.6908640951402 A 106.07792705453689,106.07792705453689 0 0,0 627.6932587890423,507.96775663413473" data-line="5.0" stroke-width="45.0"></path><path d="M 4.0,804.964 L 165.755,804.974" data-line="21.0" stroke-width="45.0"></path><path d="M 1020.0,804.916 L 857.792,804.853" data-line="22.0" stroke-width="45.0"></path><path d="M 600.54,651.796 C 526.8060410785387,640.8387360683946 466.50294834514665,641.674632906953 392.198,657.822" data-line="24.0" stroke-width="45.0"></path><path d="M 562.078,940.733 L 428.571,938.298" data-line="26.0" stroke-width="45.0"></path></g></svg>