<svg xmlns="http://www.w3.org/2000/svg" width="1024" height="1024" viewBox="238.60499572753906 14.005999565124512 546.9310302734375 1005.9940185546875" class="colorable-icon" data-export-recolorable-svg="true" overflow="visible"><g fill="none" stroke="black" stroke-width="45" stroke-linecap="round" stroke-linejoin="round"><path d="M 687.835,822.087 C 690.494,816.954 691.459,808.722 691.66,757.122 C 691.085,747.596 689.367,742.534 687.454,739.966 Q 681.625,735.776 675.778,733.948" data-line="nan" stroke-width="45.0"></path><path d="M 383.314,733.569 L 371.765,732.818" data-line="nan" stroke-width="45.0"></path><path d="M 436.153,938.412 C 437.269,933.131 441.088,927.35 443.513,925.328 C 449.051,923.298 457.278,922.702 502.285,922.695" data-line="nan" stroke-width="45.0"></path><path d="M 340.063,916.654 C 341.138,896.615 343.981,885.353 348.103,874.613 C 353.351,865.138 359.378,856.957 366.002,849.985 C 372.617,844.426 388.087,835.398 398.689,831.499 C 405.741,829.826 423.703,828.353 459.687,828.267" data-line="nan" stroke-width="45.0"></path><path d="M 371.765,732.818 C 356.287,730.651 343.647,727.366 331.163,722.841 C 315.916,715.313 304.202,707.882 292.844,699.084 C 281.875,688.763 271.815,677.217 263.352,665.148 C 254.853,650.069 249.912,637.845 245.186,622.877 C 241.88,610.192 239.631,596.64 238.605,583.111 C 238.613,562.794 239.47,549.316 241.763,536.105 C 250.129,509.264 255.517,498.337 264.017,484.884 C 272.045,473.561 281.534,462.994 293.344,452.191 C 303.261,444.584 312.886,438.499 324.59,432.447 C 336.876,427.543 351.337,423.319 365.894,420.499 L 379.32,419.206" data-line="nan" stroke-width="45.0"></path><path d="M 462.689,418.269 C 477.965,415.531 492.711,410.022 506.13,401.927 C 517.646,391.408 526.374,379.806 531.134,370.978 C 533.887,363.895 537.271,349.932 537.676,334.295 C 536.641,326.166 534.017,315.92 526.269,300.018 C 516.19,287.36 485.56,253.518 472.357,235.075 C 464.965,222.631 457.549,205.268 452.28,188.233 Q 449.371,172.176 447.905,154.375" data-line="nan" stroke-width="45.0"></path><path d="M 693.583,922.693 C 711.564,921.571 732.082,916.007 746.141,908.75 C 757.608,899.747 769.559,886.066 777.463,872.237 Q 783.015,856.257 785.274,838.071" data-line="nan" stroke-width="45.0"></path><path d="M 785.536,739.115 C 785.28,707.632 782.547,691.499 778.453,680.391 C 773.761,671.423 766.978,661.884 758.678,653.416 C 751.562,647.894 742.05,642.267 733.17,638.402 C 724.07,635.684 706.03,632.981 668.094,632.782" data-line="nan" stroke-width="45.0"></path><path d="M 398.214,632.769 C 380.249,632.08 368.799,629.654 357.688,624.036 C 349.101,616.26 343.115,607.244 339.095,595.434 C 337.908,584.703 338.851,566.747 342.289,557.472 C 348.046,548.964 354.889,543.096 360.916,540.264 C 367.642,538.335 374.811,537.513 417.705,537.314" data-line="nan" stroke-width="45.0"></path><path d="M 590.746,537.291 C 604.318,536.82 624.639,533.701 641.217,529.267 C 661.283,522.349 674.768,516.12 689.849,507.43 C 703.905,497.581 716.415,487.009 728.639,474.821 C 739.294,462.306 749.405,448.082 758.714,432.256 C 766.446,416.167 773.358,398.1 778.509,380.189 C 782.151,362.007 784.213,343.901 784.421,323.716 C 783.053,310.201 780.948,298.67 776.844,284.1 C 770.322,267.36 763.207,254.075 755.352,242.539 C 744.187,229.517 731.262,217.731 717.839,208.159 C 706.172,201.603 691.567,195.395 677.084,190.966 Q 663.666,188.417 645.624,186.81" data-line="nan" stroke-width="45.0"></path><path d="M 575.76,186.364 C 566.486,183.956 559.313,179.933 550.863,171.975 C 546.314,164.903 543.58,158.647 541.573,149.655 L 540.948,122.889" data-line="nan" stroke-width="45.0"></path><path d="M 340.049,1018.501 L 340.063,916.654" data-line="0.0" stroke-width="45.0"></path><path d="M 459.687,828.267 L 687.835,822.087" data-line="4.0" stroke-width="45.0"></path><path d="M 447.905,154.375 L 447.94,16.626" data-line="6.0" stroke-width="45.0"></path><path d="M 675.778,733.948 L 383.314,733.569" data-line="6.0" stroke-width="45.0"></path><path d="M 668.094,632.782 L 398.214,632.769" data-line="8.0" stroke-width="45.0"></path><path d="M 435.987,1020.0 L 436.153,938.412" data-line="8.0" stroke-width="45.0"></path><path d="M 417.705,537.314 L 590.746,537.291" data-line="10.0" stroke-width="45.0"></path><path d="M 502.285,922.695 L 693.583,922.693" data-line="10.0" stroke-width="45.0"></path><path d="M 379.32,419.206 L 462.689,418.269" data-line="13.0" stroke-width="45.0"></path><path d="M 785.274,838.071 L 785.536,739.115" data-line="16.0" stroke-width="45.0"></path><path d="M 645.624,186.81 L 575.76,186.364" data-line="20.0" stroke-width="45.0"></path><path d="M 540.948,122.889 L 540.941,14.006" data-line="22.0" stroke-width="45.0"></path></g></svg>