<svg xmlns="http://www.w3.org/2000/svg" width="1024" height="1024" viewBox="9.1759614944458 7.950189590454102 1006.2487182617188 1006.2494506835938" fill="none" class="colorable-icon" data-export-recolorable-svg="true" overflow="visible"><path d="M337.149 364.173C340.088 334.36 343.416 317.704 346.761 306.539C356.425 283.899 362.755 272.799 370.543 261.587C379.942 250.436 390.789 239.81 401.964 230.63C412.829 223.177 434.842 211.688 446.214 207.234C463.169 202.021 479.952 198.316 496.781 195.745C514.023 194.186 528.241 194.039 542.832 194.985C558.905 197.278 574.57 201.124 587.358 205.504C608.596 216.279 619.8 223.889 631.21 233.384C641.955 244.036 651.285 255.247 659.49 267.059C667.578 280.993 675.316 297.767 681.438 315.155C686.093 334.434 688.097 351.241 688.304 368.153C686.271 388.305 682.543 405.213 676.597 422.67C668.541 439.792 659.903 454.001 647.172 471.375C634.615 484.736 622.68 495.081 609.932 504.483C564.744 532.289 551.301 541.904 539.612 552.365C528.372 566.423 521.944 577.321 516.897 588.261C513.006 599.27 509.341 613.647 507.018 627.303C505.866 638.598 504.938 656.709 504.237 681.637" stroke="black" stroke-width="45" stroke-linecap="round" stroke-linejoin="round"></path><path d="M174.038 138.634C80.3353 223.738 22.1549 341.035 11.0996 467.132C0.0441897 593.23 36.9263 718.862 114.391 818.972C191.855 919.083 304.208 986.315 429.045 1007.26C553.881 1028.21 682.025 1001.33 787.923 931.986C893.82 862.642 969.688 755.929 1000.4 633.129C1031.1 510.329 1014.39 380.466 953.601 269.439C892.808 158.412 792.398 74.3796 672.396 34.1012C552.394 -6.17718 421.619 0.258051 306.151 52.1235" stroke="black" stroke-width="45" stroke-linecap="round" stroke-linejoin="round"></path><circle cx="509" cy="810" r="3.97" fill="black" stroke="black" stroke-width="45"></circle><path d="M305.947 51.6693L173.365 137.893" stroke="black" stroke-width="45" stroke-linecap="round" stroke-linejoin="round"></path></svg>