<svg xmlns="http://www.w3.org/2000/svg" width="1024" height="1024" viewBox="141.18014526367188 4 742.671875 1015.34228515625" class="colorable-icon" data-export-recolorable-svg="true" overflow="visible"><g fill="none" stroke="black" stroke-width="45" stroke-linecap="round" stroke-linejoin="round"><path d="M 228.756,393.28 C 207.526,421.401 188.209,452.466 172.769,483.411 C 159.492,517.967 150.658,549.148 144.091,583.86 C 140.717,618.728 140.351,657.292 142.605,688.319 C 148.406,723.277 157.248,757.405 168.555,788.952 C 183.163,819.992 201.395,851.159 221.085,878.597 C 244.583,905.698 267.917,928.098 294.939,949.498 C 322.038,967.12 352.946,983.402 387.887,997.588 C 419.041,1007.891 453.876,1015.273 488.78,1019.188 C 519.767,1019.939 554.732,1017.959 585.738,1013.023 C 620.618,1003.892 651.85,992.568 683.185,977.988 C 714.387,959.683 741.375,940.186 765.07,919.551 C 791.147,892.205 812.756,864.846 832.642,833.813 C 848.757,802.644 861.254,771.383 871.786,736.448 C 879.001,701.542 882.757,670.456 883.852,635.462 C 881.425,596.582 875.971,561.646 866.897,526.671 C 855.752,495.724 841.552,464.747 823.827,433.538 C 804.849,406.477 778.351,375.45 755.302,353.127 C 731.96,334.51 700.763,313.769 669.805,297.125 C 642.405,285.74 607.534,274.822 572.737,266.733 C 541.754,262.416 506.87,260.961 477.169,262.491 C 438.499,268.497 403.692,277.351 368.932,289.85 L 341.763,302.948" data-line="nan" stroke-width="45.0"></path><path d="M 510.546,4.0 L 511.044,179.993" data-line="0.0" stroke-width="45.0"></path><path d="M 330.452,52.815 L 388.287,194.914" data-line="1.0" stroke-width="45.0"></path><path d="M 632.974,194.729 L 690.857,53.835" data-line="2.0" stroke-width="45.0"></path><path d="M 588.2655908237451,547.8190252777856 A 87.20313982493207,87.20313982493207 0 0,0 707.5037589415888,558.9973768667647" data-line="5.0" stroke-width="45.0"></path><path d="M 311.33093926952233,555.9660068726616 A 85.74742196547665,85.74742196547665 0 0,0 432.90943086611634,549.0170095618713" data-line="6.0" stroke-width="45.0"></path><path d="M 325.7034925786329,655.6140669254855 A 74.20923099921684,74.20923099921684 0 0,0 417.2085042881605,656.7902277963566" data-line="7.0" stroke-width="45.0"></path><path d="M 603.7500588353171,657.0080668003981 A 74.85686520866649,74.85686520866649 0 0,0 692.4549670702023,657.4859555621476" data-line="8.0" stroke-width="45.0"></path><path d="M 385.49130901498665,849.5829887397991 A 145.2776933183481,145.2776933183481 0 0,1 636.8855911553259,848.4881921225458" data-line="9.0" stroke-width="45.0"></path><path d="M 341.763,302.948 C 304.5165557199891,321.337115925179 261.4830999472848,352.95270082062393 228.756,393.28" data-line="10.0" stroke-width="45.0"></path></g></svg>