<svg xmlns="http://www.w3.org/2000/svg" width="1024" height="1024" viewBox="38.319000244140625 4.325657844543457 947.2950439453125 1015.6713256835938" class="colorable-icon" data-export-recolorable-svg="true" overflow="visible"><g fill="none" stroke="black" stroke-width="45" stroke-linecap="round" stroke-linejoin="round"><path d="M 532.656,268.079 C 513.465,266.035 502.682,267.06 489.363,273.031 C 482.781,277.819 478.824,281.854 474.694,288.618 C 471.524,299.3 470.946,310.047 471.571,335.935" data-line="nan" stroke-width="45.0"></path><path d="M 553.651,335.933 C 554.936,310.048 553.162,298.698 546.791,285.728 L 534.655,268.304" data-line="nan" stroke-width="45.0"></path><path d="M 265.385,334.179 C 259.229,328.603 253.927,321.845 250.504,314.608 C 247.633,304.366 245.251,280.244 246.566,243.434 C 250.32,218.051 259.44,184.003 264.298,169.615 Q 271.762,151.983 279.622,138.031" data-line="nan" stroke-width="45.0"></path><path d="M 279.622,138.031 C 290.495,120.69 311.117,94.188 324.733,79.268 C 340.207,65.574 357.38,52.301 376.279,40.221 C 402.496,27.176 427.425,17.431 450.375,11.012 C 474.429,6.541 500.203,4.211 521.886,4.33 C 547.894,6.624 578.246,11.722 599.763,17.938 C 621.602,26.55 647.683,39.912 669.612,54.046 C 691.373,71.569 708.764,88.741 726.921,110.245 C 739.132,127.698 752.474,152.572 762.927,177.656 C 771.694,208.025 777.442,240.529 779.282,259.949 C 779.735,274.75 779.329,288.35 777.723,303.431 C 775.435,312.047 772.44,319.598 766.846,327.339 C 759.591,332.114 751.77,334.951 736.005,336.08" data-line="nan" stroke-width="45.0"></path><path d="M 882.309,150.691 C 893.033,150.942 906.106,152.429 918.29,155.352 C 927.953,158.845 938.692,164.242 947.788,170.464 C 956.449,177.978 964.36,186.684 971.747,197.12 C 976.568,205.924 980.09,214.464 983.538,226.451 Q 985.454,242.905 985.614,278.199" data-line="nan" stroke-width="45.0"></path><path d="M 985.547,917.011 C 983.905,939.744 981.469,949.03 977.008,960.862 C 971.706,971.613 965.464,981.103 958.372,989.41 C 949.797,997.048 940.707,1003.442 929.291,1009.901 C 920.713,1013.648 911.898,1016.27 889.068,1019.723 L 848.993,1019.997" data-line="nan" stroke-width="45.0"></path><path d="M 140.564,1018.536 C 125.254,1017.858 116.528,1016.651 104.249,1013.378 C 93.961,1009.167 82.516,1002.848 72.777,995.577 C 65.118,988.178 57.882,978.567 50.875,966.742 C 46.808,958.108 43.428,948.831 40.735,936.908 Q 38.428,904.044 38.319,864.863" data-line="nan" stroke-width="45.0"></path><path d="M 752.474,152.572 L 882.309,150.691" data-line="3.0" stroke-width="45.0"></path><path d="M 533.612,266.839 L 626.378,147.712" data-line="5.0" stroke-width="45.0"></path><path d="M 736.005,336.08 L 265.385,334.179" data-line="7.0" stroke-width="45.0"></path><path d="M 985.614,278.199 L 985.547,917.011" data-line="9.0" stroke-width="45.0"></path><path d="M 848.993,1019.997 L 140.564,1018.536" data-line="11.0" stroke-width="45.0"></path><path d="M 38.319,864.863 L 38.476,258.515" data-line="13.0" stroke-width="45.0"></path><path d="M 39.253449483617715,258.4278517869312 A 97.52971746250648,97.52971746250648 0 0,1 158.20343068847936,152.55359611488905" data-line="14.0" stroke-width="45.0"></path><path d="M 158.629,150.718 L 271.762,151.983" data-line="15.0" stroke-width="45.0"></path></g></svg>