<svg xmlns="http://www.w3.org/2000/svg" width="1024" height="1024" viewBox="4.1479997634887695 15.132026672363281 1015.6263427734375 993.6279907226562" class="colorable-icon" data-export-recolorable-svg="true" overflow="visible"><g fill="none" stroke="black" stroke-width="45" stroke-linecap="round" stroke-linejoin="round"><path d="M 419.897,130.092 C 394.176,147.837 382.57,154.307 364.924,162.464 C 352.97,166.975 335.749,172.051 318.055,175.62 C 300.464,177.532 277.056,177.303 253.752,174.193 C 230.553,169.163 178.186,155.402 155.294,150.647 C 132.201,148.658 120.895,148.967 109.362,150.305 C 97.923,152.734 86.646,156.279 75.227,161.15 C 63.583,167.714 51.967,176.183 41.424,186.028 C 28.103,203.287 21.565,215.043 16.827,226.28 C 13.274,237.652 11.143,248.789 10.062,265.967 C 10.53,283.292 13.145,300.165 16.41,311.672 C 20.869,323.323 26.478,334.904 41.261,358.392 C 55.271,375.845 86.366,409.789 95.321,421.304 C 106.455,438.815 114.854,456.416 120.446,474.105 C 123.409,491.675 123.928,509.539 121.912,527.182 C 117.773,545.14 111.239,562.772 101.91,580.61 C 89.716,598.273 79.858,609.972 45.522,644.487 C 30.241,661.381 21.974,672.842 13.048,689.335 C 7.333,705.402 4.739,718.553 4.148,735.279 C 6.861,754.136 10.042,763.967 15.6,775.455 C 23.615,786.873 33.826,797.363 45.002,805.941 C 56.647,812.499 68.5,817.177 85.983,821.239 C 97.589,822.524 108.999,822.7 132.27,819.863 C 155.395,814.255 196.118,801.511 213.404,796.935 C 236.637,792.167 259.753,789.381 282.952,788.979 C 311.967,792.008 335.244,797.063 358.391,804.685 C 375.851,812.431 393.702,822.382 411.421,834.836 C 422.872,844.898 439.934,861.972 449.913,873.407 C 484.288,920.423 503.696,943.621 526.772,966.144 C 538.331,975.377 549.989,983.351 561.404,990.007 C 578.738,997.978 595.913,1003.804 613.356,1007.618 C 630.72,1009.39 642.291,1009.095 659.648,1006.767 C 671.282,1003.931 689.001,997.304 700.977,991.013 C 713.131,982.739 724.787,972.442 734.898,960.919 C 743.067,948.959 749.478,937.015 754.344,925.098 C 760.661,901.785 762.744,884.192 762.903,855.221 C 759.982,797.262 760.463,779.902 762.449,762.608 C 766.044,745.257 771.47,728.096 779.09,710.657 C 789.285,693.044 797.736,681.329 812.953,664.203 C 829.669,649.079 846.972,636.746 858.722,629.915 C 876.044,621.373 934.287,598.439 951.83,590.449 C 963.703,583.86 975.435,575.986 992.495,560.775 C 1001.788,549.234 1009.007,537.21 1014.179,525.309 C 1017.523,513.468 1019.876,495.835 1019.771,484.203 C 1018.245,472.567 1015.31,461.008 1007.753,443.339 C 1000.061,431.36 995.319,425.51 984.63,414.944 C 966.937,402.746 949.128,394.355 931.731,388.933 C 908.673,384.289 862.329,378.054 844.968,374.975 C 827.378,370.475 809.61,364.255 786.635,353.162 C 769.033,342.156 751.435,328.588 735.538,313.016 C 721.983,295.481 711.563,277.879 703.67,260.115 C 696.646,236.943 693.58,219.537 692.619,207.988 C 692.806,150.048 691.789,126.9 688.979,109.303 C 683.826,91.766 678.992,80.249 672.664,68.645 C 659.696,51.065 648.487,40.151 630.665,28.028 C 618.721,22.405 607.088,18.489 595.662,16.044 C 578.521,14.61 568.318,14.95 557.55,16.485 C 540.42,21.511 528.962,26.458 511.582,37.0 C 494.732,51.127 483.661,62.541 447.637,104.101 Q 426.868,124.731 419.897,130.092" data-line="nan" stroke-width="45.0"></path><circle cx="335.39370950719444" cy="382.12760694666446" r="76.38251411429688" data-line="2.0" stroke-width="45.0"></circle><path d="M 378.281,445.443 L 386.187,440.657" data-line="3.0" stroke-width="45.0"></path></g></svg>