<svg xmlns="http://www.w3.org/2000/svg" width="1024" height="1024" viewBox="69.83399963378906 5.370999813079834 884.4910888671875 1014.6290283203125" class="colorable-icon" data-export-recolorable-svg="true" overflow="visible"><g fill="none" stroke="black" stroke-width="45" stroke-linecap="round" stroke-linejoin="round"><path d="M 175.557,830.393 C 176.249,810.542 178.833,796.601 185.013,780.255 L 191.907,769.041" data-line="nan" stroke-width="45.0"></path><path d="M 72.345,780.308 C 76.864,759.163 84.099,738.024 92.161,721.017 C 102.518,704.138 115.711,687.242 127.758,674.799 C 144.586,660.901 161.209,650.377 178.202,642.32 C 195.116,636.365 212.103,632.265 229.074,630.007 C 246.045,629.496 263.065,630.355 318.382,638.862 C 339.683,640.272 352.465,639.866 365.295,638.425 C 382.364,635.027 395.098,631.4 412.384,624.87 C 429.651,616.319 446.947,605.466 459.937,595.523 C 472.768,583.97 488.548,566.74 498.274,553.884 C 508.918,536.876 517.419,519.8 524.027,502.497 C 528.75,485.296 531.932,468.236 533.715,451.049 C 533.756,433.944 531.798,412.613 528.873,395.507 C 524.625,378.458 520.484,365.541 513.76,348.471 C 507.764,335.708 493.28,310.204 458.628,258.846 C 451.692,246.298 443.927,229.593 437.4,212.266 C 431.591,191.166 428.581,174.272 426.768,153.04" data-line="nan" stroke-width="45.0"></path><path d="M 524.782,135.298 C 525.225,150.475 526.862,161.067 529.605,169.955 C 535.834,183.236 542.056,193.449 551.798,206.037 L 577.988,233.849" data-line="nan" stroke-width="45.0"></path><path d="M 191.907,769.041 C 202.194,759.058 214.459,752.545 220.677,750.834 C 229.074,750.038 242.349,752.048 251.29,755.727 C 261.689,762.856 271.539,773.186 294.064,801.0 C 307.062,813.612 323.098,826.941 338.495,838.041 C 352.875,847.084 367.858,855.325 385.257,863.591 C 406.684,872.02 426.733,878.36 446.883,883.418 C 470.399,887.803 508.78,891.795 532.399,892.219 C 559.847,891.109 581.136,888.949 602.834,885.532 C 623.612,881.099 644.747,875.357 664.726,868.652 C 683.283,861.255 702.876,852.173 721.952,841.893 C 738.779,831.605 757.911,818.429 775.566,804.84 C 792.419,790.446 809.698,774.05 825.356,757.689 C 839.924,740.73 853.423,723.247 869.612,699.482 C 886.637,670.6 901.62,641.142 914.594,611.3 C 925.668,580.391 935.13,548.436 943.579,512.771 C 949.415,480.137 952.742,453.15 954.325,426.572 C 953.146,398.577 950.598,375.542 945.805,351.635 C 938.951,328.524 930.459,307.064 919.866,285.96 C 906.198,264.521 890.869,245.781 871.837,227.541 C 854.39,214.181 832.737,201.078 811.923,191.459 C 788.293,183.633 764.505,178.646 741.457,176.351 C 711.661,176.814 686.456,180.156 662.539,185.969 C 639.701,194.2 618.758,204.444 597.493,218.077 L 577.988,233.849" data-line="nan" stroke-width="45.0"></path><path d="M 69.834,1019.754 L 72.345,780.308" data-line="0.0" stroke-width="45.0"></path><path d="M 524.74,5.371 L 524.782,135.298" data-line="1.0" stroke-width="45.0"></path><path d="M 175.769,1020.0 L 175.557,830.393" data-line="3.0" stroke-width="45.0"></path><path d="M 426.768,153.04 L 426.221,7.035" data-line="4.0" stroke-width="45.0"></path></g></svg>