<svg xmlns="http://www.w3.org/2000/svg" width="1024" height="1024" viewBox="0.010000000707805157 0 1022.8728637695312 1023.9022216796875" class="colorable-icon" data-export-recolorable-svg="true" overflow="visible"><g fill="none" stroke="black" stroke-width="45" stroke-linecap="round" stroke-linejoin="round"><path d="M 266.49,425.15 C 266.6,439.11 265.51,448.56 262.62,460.85 C 258.34,472.66 252.67,484.55 244.87,496.91 C 237.7,506.14 228.29,516.07 216.58,526.02 C 206.84,532.78 195.07,539.35 182.13,544.98 C 168.56,549.39 156.63,551.9 142.72,553.56 C 130.33,553.87 115.23,552.65 100.18,549.77 C 87.63,546.06 73.75,540.42 60.59,533.42 C 50.36,526.47 40.21,518.22 30.73,508.84 C 21.54,497.62 15.37,488.39 8.99,476.24 C 3.7,462.04 0.6,448.9 0.01,440.81 Q 0.09,432.66 3.1,417.78" data-line="nan" stroke-width="45.0"></path><path d="M 780.88,571.98 C 774.5,570.27 768.27,569.7 761.38,570.28 C 753.74,572.3 743.41,578.34 738.62,582.99 L 734.37,588.81" data-line="nan" stroke-width="45.0"></path><path d="M 521.72,957.34 C 514.42,971.54 512.41,978.7 512.0,983.61 C 512.51,989.41 514.73,996.95 517.03,1001.94 C 521.21,1008.09 525.63,1012.79 531.62,1017.39 C 542.66,1022.37 552.13,1023.97 574.39,1023.9" data-line="nan" stroke-width="45.0"></path><path d="M 981.08,1023.82 C 988.02,1023.43 996.17,1021.57 1006.53,1016.33 C 1011.23,1012.48 1016.53,1006.49 1020.17,1000.37 C 1022.67,993.55 1023.96,982.3 1021.75,971.95 Q 1016.75,961.56 1003.01,937.96" data-line="nan" stroke-width="45.0"></path><path d="M 309.38450268580135,842.8188731916451 A 95.01758873847956,95.01758873847956 0 0,1 401.3796591167996,753.6150330813641" data-line="0.0" stroke-width="45.0"></path><path d="M 308.91,842.79 L 513.5,842.93" data-line="1.0" stroke-width="45.0"></path><path d="M 921.6,425.11 L 655.54,425.15" data-line="3.0" stroke-width="45.0"></path><path d="M 705.5282981873751,525.9035428401905 A 114.70658744968944,114.70658744968944 0 0,1 656.9098390609611,412.28438423442356" data-line="4.0" stroke-width="45.0"></path><path d="M 845.0356626962921,541.2266300845858 A 124.04696518850773,124.04696518850773 0 0,0 922.4192399068638,425.10216284364446" data-line="5.0" stroke-width="45.0"></path><path d="M 266.49,425.15 L 1.23,425.26" data-line="6.0" stroke-width="45.0"></path><path d="M 266.49,425.15 L 133.64,103.46" data-line="8.0" stroke-width="45.0"></path><path d="M 3.1,417.78 L 130.49,103.49" data-line="9.0" stroke-width="45.0"></path><path d="M 921.6,425.11 L 793.08,103.31" data-line="10.0" stroke-width="45.0"></path><path d="M 658.69,412.58 L 787.64,103.31" data-line="11.0" stroke-width="45.0"></path><path d="M 461.43,121.41 L 461.19,0.0" data-line="12.0" stroke-width="45.0"></path><path d="M 787.64,103.31 L 133.64,103.46" data-line="13.0" stroke-width="45.0"></path><path d="M 461.43,121.41 L 461.46,753.91" data-line="14.0" stroke-width="45.0"></path><path d="M 780.88,571.98 L 784.59,573.26" data-line="28.0" stroke-width="45.0"></path><path d="M 734.37,588.81 L 521.72,957.34" data-line="28.0" stroke-width="45.0"></path><path d="M 768.25,947.48 L 768.33,946.99" data-line="29.0" stroke-width="45.0"></path><path d="M 768.29,947.48 L 768.09,947.04" data-line="30.0" stroke-width="45.0"></path><path d="M 768.35,947.46 L 768.04,947.1" data-line="31.0" stroke-width="45.0"></path><path d="M 768.43,947.41 L 768.01,947.17" data-line="32.0" stroke-width="45.0"></path><path d="M 768.49,947.31 L 768.01,947.29" data-line="33.0" stroke-width="45.0"></path><path d="M 768.5,947.19 L 768.06,947.39" data-line="34.0" stroke-width="45.0"></path><path d="M 768.47,947.11 L 768.14,947.45" data-line="35.0" stroke-width="45.0"></path><path d="M 768.43,947.05 L 768.19,947.47" data-line="36.0" stroke-width="45.0"></path><path d="M 768.25,678.74 L 768.25,888.97" data-line="37.0" stroke-width="45.0"></path><path d="M 401.39,753.96 L 559.69,763.47" data-line="38.0" stroke-width="45.0"></path><path d="M 574.39,1023.9 L 981.08,1023.82" data-line="40.0" stroke-width="45.0"></path><path d="M 1003.01,937.96 L 784.58,573.26" data-line="42.0" stroke-width="45.0"></path></g></svg>