<svg xmlns="http://www.w3.org/2000/svg" width="1024" height="1024" viewBox="4.164000034332275 97.17900085449219 1015.9901733398438 829.6239624023438" class="colorable-icon" data-export-recolorable-svg="true" overflow="visible"><g fill="none" stroke="black" stroke-width="45" stroke-linecap="round" stroke-linejoin="round"><path d="M 581.718,784.086 C 534.986,782.406 516.457,779.822 496.065,775.743" data-line="nan" stroke-width="45.0"></path><path d="M 323.128,731.963 C 306.917,728.59 292.034,726.508 249.283,726.152" data-line="nan" stroke-width="45.0"></path><path d="M 330.08,181.444 C 328.894,199.881 328.754,227.819 327.725,237.171 C 324.971,247.85 320.45,260.265 312.863,272.69 C 304.438,282.009 295.459,289.484 285.292,296.188 C 276.025,300.982 263.966,305.564 253.408,308.232 Q 243.313,309.599 229.275,310.106" data-line="nan" stroke-width="45.0"></path><path d="M 55.691,186.151 C 52.316,199.006 50.813,211.226 51.283,300.716 C 50.654,335.624 48.613,360.81 45.504,379.305 C 40.694,401.105 20.5,475.702 12.923,507.691 Q 7.421,540.918 4.348,577.779" data-line="nan" stroke-width="45.0"></path><path d="M 4.166,667.933 L 4.331,713.65" data-line="nan" stroke-width="45.0"></path><path d="M 446.788,97.179 C 439.859,97.652 429.915,99.62 399.153,108.572 C 381.669,115.689 366.083,124.79 351.3,137.4 C 341.039,150.558 335.03,163.003 330.08,181.444" data-line="nan" stroke-width="45.0"></path><path d="M 920.532,561.2 C 906.52,554.275 893.329,548.887 865.873,540.846 C 842.371,536.605 796.712,531.747 776.677,528.86 C 752.929,524.186 726.302,517.25 706.549,510.549 C 675.578,498.311 652.58,487.557 629.589,475.654" data-line="nan" stroke-width="45.0"></path><path d="M 996.571,858.562 L 874.545,893.396" data-line="1.0" stroke-width="45.0"></path><path d="M 996.571,858.562 L 1001.211,855.341" data-line="2.0" stroke-width="45.0"></path><path d="M 1001.211,855.341 L 1005.545,851.615" data-line="3.0" stroke-width="45.0"></path><path d="M 1005.545,851.615 L 1009.339,847.469" data-line="4.0" stroke-width="45.0"></path><path d="M 1009.339,847.469 L 1012.539,842.976" data-line="5.0" stroke-width="45.0"></path><path d="M 1012.539,842.976 L 1015.076,838.16" data-line="6.0" stroke-width="45.0"></path><path d="M 1015.076,838.16 L 1016.924,833.317" data-line="7.0" stroke-width="45.0"></path><path d="M 1016.924,833.317 L 1019.419,700.827" data-line="8.0" stroke-width="45.0"></path><path d="M 854.651,926.357 L 523.552,925.99" data-line="9.0" stroke-width="45.0"></path><path d="M 854.651,926.357 L 859.665,925.178" data-line="10.0" stroke-width="45.0"></path><path d="M 859.665,925.178 L 864.447,922.757" data-line="11.0" stroke-width="45.0"></path><path d="M 864.447,922.757 L 868.324,918.903" data-line="12.0" stroke-width="45.0"></path><path d="M 868.324,918.903 L 870.828,913.976" data-line="13.0" stroke-width="45.0"></path><path d="M 870.828,913.976 L 872.003,910.169" data-line="14.0" stroke-width="45.0"></path><path d="M 872.003,910.169 L 874.545,893.396" data-line="15.0" stroke-width="45.0"></path><path d="M 780.103,898.901 L 780.517,926.742" data-line="16.0" stroke-width="45.0"></path><path d="M 689.759,900.223 L 689.81,926.803" data-line="18.0" stroke-width="45.0"></path><path d="M 600.583,897.568 L 599.893,926.787" data-line="20.0" stroke-width="45.0"></path><path d="M 514.423,922.764 L 508.431,919.004" data-line="21.0" stroke-width="45.0"></path><path d="M 514.423,922.764 L 516.891,923.945" data-line="22.0" stroke-width="45.0"></path><path d="M 516.891,923.945 L 520.512,925.258" data-line="23.0" stroke-width="45.0"></path><path d="M 520.512,925.258 L 523.552,925.99" data-line="24.0" stroke-width="45.0"></path><path d="M 498.041,887.564 L 285.027,818.607" data-line="26.0" stroke-width="45.0"></path><path d="M 498.041,887.564 L 501.051,889.347" data-line="27.0" stroke-width="45.0"></path><path d="M 501.051,889.347 L 503.758,891.974" data-line="28.0" stroke-width="45.0"></path><path d="M 503.758,891.974 L 506.016,895.717" data-line="29.0" stroke-width="45.0"></path><path d="M 506.016,895.717 L 507.27,899.825" data-line="30.0" stroke-width="45.0"></path><path d="M 507.27,899.825 L 507.812,903.672" data-line="31.0" stroke-width="45.0"></path><path d="M 507.812,903.672 L 508.431,919.004" data-line="32.0" stroke-width="45.0"></path><path d="M 285.027,818.607 L 283.187,914.786" data-line="33.0" stroke-width="45.0"></path><path d="M 261.589,926.474 L 29.681,924.471" data-line="34.0" stroke-width="45.0"></path><path d="M 261.5889999853688,926.4739998948703 A 35.78848606346954,35.78848606346954 0 0,0 267.430999968143,925.1549998991012" data-line="35.0" stroke-width="45.0"></path><path d="M 267.431,925.155 L 271.09,923.585" data-line="36.0" stroke-width="45.0"></path><path d="M 271.0899999788182,923.5849999592218 A 47.13535103439972,47.13535103439972 0 0,0 277.2369999720587,919.7659999618991" data-line="37.0" stroke-width="45.0"></path><path d="M 277.237,919.766 L 283.187,914.786" data-line="38.0" stroke-width="45.0"></path><path d="M 191.081,899.06 L 191.32,926.803" data-line="39.0" stroke-width="45.0"></path><path d="M 101.845,900.44 L 101.973,926.789" data-line="41.0" stroke-width="45.0"></path><path d="M 15.201,915.987 L 8.946,908.847" data-line="42.0" stroke-width="45.0"></path><path d="M 15.201,915.987 L 17.941,918.321" data-line="43.0" stroke-width="45.0"></path><path d="M 17.941,918.321 L 21.568,920.766" data-line="44.0" stroke-width="45.0"></path><path d="M 21.568000003118836,920.7659999944093 A 55.47466359567195,55.47466359567195 0 0,0 29.681000002129302,924.4709999941288" data-line="45.0" stroke-width="45.0"></path><path d="M 8.946,908.847 L 4.331,713.65" data-line="47.0" stroke-width="45.0"></path><path d="M 74.917,181.853 L 55.691,186.151" data-line="48.0" stroke-width="45.0"></path><path d="M 74.917,181.853 L 330.08,181.444" data-line="49.0" stroke-width="45.0"></path><path d="M 446.788,97.179 L 451.181,97.477" data-line="53.0" stroke-width="45.0"></path><path d="M 451.181,97.477 L 455.917,98.453" data-line="54.0" stroke-width="45.0"></path><path d="M 455.917,98.453 L 460.766,100.508" data-line="55.0" stroke-width="45.0"></path><path d="M 460.766,100.508 L 465.326,103.666" data-line="56.0" stroke-width="45.0"></path><path d="M 465.326,103.666 L 469.235,107.825" data-line="57.0" stroke-width="45.0"></path><path d="M 469.235,107.825 L 472.051,112.449" data-line="58.0" stroke-width="45.0"></path><path d="M 472.051,112.449 L 473.775,117.201" data-line="59.0" stroke-width="45.0"></path><path d="M 1019.976,784.301 L 581.718,784.086" data-line="59.0" stroke-width="45.0"></path><path d="M 473.775,117.201 L 474.636,121.876" data-line="60.0" stroke-width="45.0"></path><path d="M 496.065,775.743 L 323.128,731.963" data-line="61.0" stroke-width="45.0"></path><path d="M 474.636,121.876 L 479.884,304.072" data-line="61.0" stroke-width="45.0"></path><path d="M 382.747,393.985 L 481.478,308.667" data-line="62.0" stroke-width="45.0"></path><path d="M 467.274,492.114 L 545.971,412.712" data-line="63.0" stroke-width="45.0"></path><path d="M 249.283,726.152 L 4.164,725.765" data-line="63.0" stroke-width="45.0"></path><path d="M 4.348,577.779 L 4.166,667.933" data-line="66.0" stroke-width="45.0"></path><path d="M 479.884,304.072 L 488.19,328.024" data-line="75.0" stroke-width="45.0"></path><path d="M 1020.1541553235149,700.7464888353819 A 174.1112273469941,174.1112273469941 0 0,0 920.2868012396242,561.7290949525822" data-line="76.0" stroke-width="45.0"></path><path d="M 629.7884214339127,475.25836283712266 A 308.4580391762593,308.4580391762593 0 0,1 488.0966167170937,328.0666932581005" data-line="78.0" stroke-width="45.0"></path><path d="M 229.275,310.106 L 51.03,312.14" data-line="79.0" stroke-width="45.0"></path></g></svg>