<svg id="fi_10427391" enable-background="new 0 0 100 100" viewBox="0 0 100 100" xmlns="http://www.w3.org/2000/svg"  stroke="currentColor" fill="currentColor"><g><path d="m93.75 47.17h-2.17c-1.39-8.4-8.68-14.83-17.47-14.83-9.28 0-16.9 7.17-17.65 16.26-1.41-.37-3.58-.56-6.46-.56-2.84 0-5.03.2-6.46.56-.75-9.09-8.37-16.26-17.66-16.26-8.79 0-16.08 6.43-17.47 14.83h-2.16c-.55 0-1 .45-1 1v4.83c0 .55.45 1 1 1h2.36c1.79 7.89 8.85 13.8 17.28 13.8 9.57 0 17.38-7.63 17.7-17.12.61-.22 2.29-.64 6.41-.64 4.15 0 5.82.41 6.41.63.32 9.5 8.12 17.13 17.7 17.13 8.42 0 15.48-5.91 17.28-13.8h2.36c.55 0 1-.45 1-1v-4.83c0-.55-.45-1-1-1zm-86.5 4.83v-2.83h.95c-.02.3-.05.6-.05.9 0 .65.04 1.3.11 1.93zm18.64 13.8c-8.67 0-15.73-7.06-15.73-15.73s7.06-15.73 15.73-15.73 15.73 7.06 15.73 15.73-7.06 15.73-15.73 15.73zm48.22 0c-8.67 0-15.73-7.06-15.73-15.73s7.06-15.73 15.73-15.73 15.73 7.06 15.73 15.73-7.05 15.73-15.73 15.73zm18.64-13.8h-1.02c.07-.63.11-1.28.11-1.93 0-.3-.03-.6-.05-.9h.95v2.83z"></path>

<!-- <path d="m30.15 41.32c-.39-.39-1.02-.39-1.41 0l-3.95 3.95c-.39.39-.39 1.02 0 1.41.2.2.45.29.71.29s.51-.1.71-.29l3.95-3.95c.38-.38.38-1.01-.01-1.41z"></path> -->
<!-- 
<path d="m33.61 41.32-3.95 3.95c-.39.39-.39 1.02 0 1.41.2.2.45.29.71.29s.51-.1.71-.29l3.95-3.95c.39-.39.39-1.02 0-1.41s-1.03-.39-1.42 0z"></path> -->
<!-- 
<path d="m79.15 41.32c-.39-.39-1.02-.39-1.41 0l-3.95 3.95c-.39.39-.39 1.02 0 1.41.2.2.45.29.71.29s.51-.1.71-.29l3.95-3.95c.38-.38.38-1.01-.01-1.41z"></path>

<path d="m82.61 41.32-3.95 3.95c-.39.39-.39 1.02 0 1.41.2.2.45.29.71.29s.51-.1.71-.29l3.95-3.95c.39-.39.39-1.02 0-1.41s-1.03-.39-1.42 0z"></path> --></g></svg>