<svg id="fi_4766405" height="512" viewBox="0 0 60 60" width="512" stroke="currentColor" fill="currentColor" xmlns="http://www.w3.org/2000/svg"><path d="m16.47 41.89c-.33-.17-.72-.16-1.03.05l-6 4c-.27.19-.44.5-.44.83v3c0 .55.45 1 1 1h6c.55 0 1-.45 1-1v-7c0-.37-.2-.71-.53-.88zm-1.47 6.88h-4v-1.46l4-2.67z"></path><path d="m28.47 32.89c-.33-.17-.72-.16-1.03.05l-6 4c-.28.19-.45.5-.45.83v12c0 .55.45 1 1 1h6c.55 0 1-.45 1-1v-16c.01-.37-.19-.71-.52-.88zm-1.47 15.88h-4v-10.46l4-2.67z"></path><path d="m40.42 31.87c-.35-.16-.77-.11-1.06.14l-6 5c-.23.18-.36.47-.36.76v12c0 .55.45 1 1 1h6c.55 0 1-.45 1-1v-17c0-.39-.22-.74-.58-.9zm-1.42 16.9h-4v-10.53l4-3.33z"></path><path d="m52.42 16.87c-.35-.16-.77-.11-1.06.14l-6 5c-.23.18-.36.47-.36.76v27c0 .55.45 1 1 1h6c.55 0 1-.45 1-1v-32c0-.39-.22-.74-.58-.9zm-1.42 31.9h-4v-25.53l4-3.33z"></path><path d="m45.44 17.75c.51 0 .95-.39.99-.91l.54-5.9c.05-.27-.01-.56-.19-.79s-.44-.35-.71-.37l-5.97-.55c-.55-.06-1.04.35-1.09.9s.35 1.04.9 1.09l3.47.32-16.8 13.19-4.66-4.97c-.35-.38-.94-.42-1.35-.1l-13.19 10.32c-.44.34-.51.97-.17 1.4.2.25.49.38.79.38.22 0 .43-.07.62-.21l12.47-9.77 4.66 4.97c.35.38.94.42 1.35.1l17.68-13.85-.34 3.66c-.05.55.35 1.04.9 1.09z"></path></svg>