<svg xmlns="http://www.w3.org/2000/svg" width="1024" height="1024" viewBox="6.2642822265625 4.606878280639648 1010.7846069335938 1015.1314086914062" class="colorable-icon" data-export-recolorable-svg="true" overflow="visible"><g fill="none" stroke="black" stroke-width="45" stroke-linecap="round" stroke-linejoin="round"><path d="M 522.556,522.747 C 526.901,494.357 532.851,468.57 539.845,447.479 C 550.169,423.413 559.183,407.58 569.821,393.164 C 585.588,376.233 602.492,361.327 622.286,347.73 C 645.426,335.224 669.087,325.243 697.153,316.131 C 726.28,308.635 752.899,303.771 788.231,300.145 L 811.765,299.606" data-line="nan" stroke-width="45.0"></path><path d="M 811.765,299.606 C 811.241,334.949 809.11,356.612 802.474,391.876 C 794.193,420.937 783.087,450.163 770.707,474.533 C 756.847,496.017 738.592,517.406 718.898,535.409 C 698.78,549.858 672.706,564.251 648.62,574.006 C 627.434,580.438 591.289,587.169 558.227,591.398 L 520.282,593.414" data-line="nan" stroke-width="45.0"></path><path d="M 201.682,291.31 C 245.254,296.024 273.651,300.058 298.789,305.486 C 327.38,313.569 352.212,322.286 372.674,331.566 C 392.914,343.438 412.188,357.365 430.974,374.205 C 446.544,391.403 457.726,407.796 468.774,428.105 C 477.71,447.908 484.922,468.697 490.558,494.019 L 495.414,524.432" data-line="nan" stroke-width="45.0"></path><path d="M 497.848,571.386 C 455.5,573.716 429.624,573.06 399.384,568.405 C 364.64,559.819 343.072,552.447 321.667,541.785 C 295.948,524.24 274.156,505.816 258.591,488.76 C 248.837,475.494 240.493,462.414 227.147,436.674 C 216.97,410.878 209.286,384.653 203.449,354.725 Q 201.822,333.173 201.682,291.31" data-line="nan" stroke-width="45.0"></path><path d="M 418.142,11.526 C 465.68,5.682 494.184,4.129 535.162,4.726 C 573.982,8.588 616.409,15.986 656.021,26.063 Q 690.86,37.881 724.391,52.322" data-line="nan" stroke-width="45.0"></path><path d="M 520.282,593.414 L 680.257,433.573" data-line="2.0" stroke-width="45.0"></path><path d="M 348.704,431.073 L 520.282,593.414" data-line="4.0" stroke-width="45.0"></path><path d="M 511.132,753.102 L 511.053,602.167" data-line="6.0" stroke-width="45.0"></path><path d="M 329.6808967259353,840.1813757372113 A 231.34345476383825,231.34345476383825 0 0,1 692.1958871305044,838.8894278426119" data-line="7.0" stroke-width="45.0"></path><path d="M 522.556,522.747 L 495.414,524.432" data-line="11.0" stroke-width="45.0"></path><path d="M 962.1059729374457,280.34007801243115 A 505.9257360908496,505.9257360908496 0 0,1 803.6658038453782,922.4039230580959" data-line="15.0" stroke-width="45.0"></path><path d="M 144.07,861.904 L 252.363,862.754" data-line="16.0" stroke-width="45.0"></path><path d="M 144.47,962.076 L 144.07,861.904" data-line="17.0" stroke-width="45.0"></path><path d="M 73.14415269535704,756.334145877456 A 504.2849345855158,504.2849345855158 0 0,1 417.7991366611007,9.69364292046464" data-line="21.0" stroke-width="45.0"></path><path d="M 774.099,169.983 L 887.204,170.517" data-line="22.0" stroke-width="45.0"></path><path d="M 884.786,67.698 L 887.204,170.517" data-line="23.0" stroke-width="45.0"></path><path d="M 803.994,922.867 L 712.592,977.256" data-line="24.0" stroke-width="45.0"></path><path d="M 712.7246182877807,977.5586857672386 A 501.7940483916788,501.7940483916788 0 0,1 145.09080818499336,860.9480069460667" data-line="25.0" stroke-width="45.0"></path><path d="M 724.2201564621109,52.703567040798134 A 504.2463692237434,504.2463692237434 0 0,1 887.8061709889437,169.95829170148272" data-line="27.0" stroke-width="45.0"></path></g></svg>