<svg xmlns="http://www.w3.org/2000/svg" width="1024" height="1024" viewBox="3.8330962657928467 135.3040008544922 1014.994140625 753.27197265625" class="colorable-icon" data-export-recolorable-svg="true" overflow="visible"><g fill="none" stroke="black" stroke-width="45" stroke-linecap="round" stroke-linejoin="round"><path d="M 568.961,612.713 C 529.644,647.604 513.844,659.093 497.754,669.267 C 477.193,680.541 453.239,691.81 359.52,728.283 C 323.343,745.96 295.57,762.099 267.379,780.434 L 186.202,839.283" data-line="nan" stroke-width="45.0"></path><path d="M 675.603,166.412 C 648.905,199.961 635.83,219.271 622.513,245.058 C 612.364,272.601 604.125,305.893 598.82,340.803 Q 595.345,383.633 593.556,435.033" data-line="nan" stroke-width="45.0"></path><path d="M 592.931,516.378 C 591.273,536.087 587.163,558.984 582.754,574.582 L 573.646,599.762" data-line="nan" stroke-width="45.0"></path><path d="M 518.843,857.833 C 546.276,832.643 561.96,815.746 568.381,807.07 C 573.56,798.333 578.945,784.826 580.162,776.112 Q 580.347,750.279 578.138,604.38" data-line="nan" stroke-width="45.0"></path><path d="M 186.202,839.283 C 163.304,855.308 141.217,869.054 123.756,877.935 C 107.195,884.225 91.102,887.847 76.782,888.576 C 70.134,887.73 61.355,885.378 49.058,879.615 C 39.245,872.148 29.651,860.731 22.748,847.468 C 17.656,833.18 13.823,817.47 10.614,796.701 L 6.343,736.753" data-line="nan" stroke-width="45.0"></path><path d="M 15.523,419.391 C 22.107,385.161 31.64,350.347 42.943,319.614 C 56.297,291.528 72.835,264.093 92.504,238.342 C 110.679,219.046 133.987,199.081 159.458,181.706 C 185.559,167.701 214.439,155.681 244.106,146.655 C 279.092,139.764 315.222,136.077 348.052,135.304 L 386.621,136.408" data-line="nan" stroke-width="45.0"></path><path d="M 870.541,171.975 C 912.924,175.336 934.698,177.896 952.779,181.221 C 969.761,186.346 983.671,192.489 997.194,201.3 C 1003.246,206.766 1008.696,213.056 1015.189,224.316 C 1019.393,239.179 1019.851,250.316 1017.093,267.445 C 1010.297,290.225 1001.947,310.342 989.814,333.82 Q 975.005,358.201 959.037,381.428" data-line="nan" stroke-width="45.0"></path><path d="M 884.42,469.046 C 865.093,488.042 843.6,507.504 822.497,525.03 C 803.091,539.823 781.412,554.893 762.563,566.698 C 743.262,577.425 724.246,586.517 705.951,593.662 C 689.478,598.648 672.284,602.272 657.039,604.247 C 637.9,605.792 625.05,605.865 578.061,600.326" data-line="nan" stroke-width="45.0"></path><path d="M 6.343,736.753 C 3.0726727869014394,627.1427794040723 0.4935877751096901,523.3463993574038 15.523,419.391" data-line="4.0" stroke-width="45.0"></path><path d="M 593.556,435.033 L 592.931,516.378" data-line="5.0" stroke-width="45.0"></path><path d="M 386.621,136.408 L 870.541,171.975" data-line="6.0" stroke-width="45.0"></path><path d="M 959.037,381.428 L 884.42,469.046" data-line="8.0" stroke-width="45.0"></path></g></svg>