<svg xmlns="http://www.w3.org/2000/svg" width="1024" height="1024" viewBox="76.69208526611328 3.0983927249908447 870.3772583007812 1016.8995971679688" class="colorable-icon" data-export-recolorable-svg="true" overflow="visible"><g fill="none" stroke="black" stroke-width="45" stroke-linecap="round" stroke-linejoin="round"><path d="M 270.931,336.743 C 258.449,338.154 246.067,342.045 237.96,347.018 C 234.18,350.386 227.728,358.392 223.508,366.286 Q 220.338,375.609 205.944,434.015" data-line="nan" stroke-width="45.0"></path><path d="M 565.525,328.984 C 591.542,302.915 600.197,293.236 608.615,281.448 C 616.018,267.38 621.609,250.187 624.367,234.759 C 624.299,217.243 621.642,200.712 615.272,181.246 C 606.502,164.46 595.217,149.507 580.269,135.537 C 562.132,123.748 545.085,116.586 529.065,112.861 C 510.127,111.623 490.085,113.441 470.415,118.669 C 455.798,125.257 439.776,136.39 425.87,150.302 C 415.017,165.72 407.566,181.281 400.988,204.282 C 399.091,219.184 399.959,238.596 403.481,255.377 C 410.762,273.535 418.211,286.469 428.277,299.625 L 462.817,331.734" data-line="nan" stroke-width="45.0"></path><path d="M 80.069,941.268 C 76.211,962.019 76.22,970.227 77.346,978.47 C 79.857,986.725 84.079,995.374 86.824,999.56 C 93.516,1006.995 97.439,1010.144 105.963,1015.01 C 118.862,1018.752 131.518,1019.852 161.046,1019.998" data-line="nan" stroke-width="45.0"></path><path d="M 883.751,1019.982 C 896.428,1019.633 904.956,1018.423 918.351,1013.704 C 926.937,1008.221 930.904,1004.74 940.795,992.184 C 946.263,979.023 947.917,966.121 946.682,953.344 L 939.341,923.738" data-line="nan" stroke-width="45.0"></path><path d="M 827.409,475.867 C 803.021,378.442 800.426,370.093 796.541,361.541 C 790.648,352.986 786.907,349.092 778.441,343.112 Q 765.21,338.314 752.734,336.699" data-line="nan" stroke-width="45.0"></path><path d="M 569.266,330.287 L 454.159,332.629" data-line="0.0" stroke-width="45.0"></path><path d="M 686.0292176556084,335.7744238268347 A 212.01009630920203,212.01009630920203 0 1,0 337.74375022758375,336.2895945787325" data-line="3.0" stroke-width="45.0"></path><path d="M 461.651,336.57 L 270.931,336.743" data-line="3.0" stroke-width="45.0"></path><path d="M 161.046,1019.998 L 883.751,1019.982" data-line="5.0" stroke-width="45.0"></path><path d="M 205.944,434.015 L 80.069,941.268" data-line="5.0" stroke-width="45.0"></path><path d="M 939.341,923.738 L 827.409,475.867" data-line="9.0" stroke-width="45.0"></path><path d="M 752.734,336.699 L 560.65,336.566" data-line="11.0" stroke-width="45.0"></path></g></svg>