<svg xmlns="http://www.w3.org/2000/svg" width="1024" height="1024" viewBox="160.59335327148438 4.375606536865234 702.7498779296875 1015.6243896484375" class="colorable-icon" data-export-recolorable-svg="true" overflow="visible"><g fill="none" stroke="black" stroke-width="45" stroke-linecap="round" stroke-linejoin="round"><path d="M 647.021,13.047 C 632.175,5.768 623.724,4.023 614.764,4.431 C 604.857,7.614 599.557,10.954 592.389,17.471 L 560.242,54.535" data-line="nan" stroke-width="45.0"></path><path d="M 647.021,13.047 C 654.716,27.531 656.886,36.078 657.23,42.994 L 637.735,127.923" data-line="nan" stroke-width="45.0"></path><path d="M 575.479,393.515 L 571.648,420.177" data-line="nan" stroke-width="45.0"></path><path d="M 178.76,494.605 C 169.81,505.72 165.919,512.102 160.79,527.612 C 160.103,535.81 161.031,542.736 166.556,557.592 C 171.969,565.44 178.063,571.237 183.932,575.39 C 192.132,579.24 207.838,581.65 231.777,581.781" data-line="nan" stroke-width="45.0"></path><path d="M 814.278,422.287 C 824.613,422.663 833.697,424.656 846.374,430.898 C 855.392,440.142 861.124,450.335 862.821,455.709 C 863.691,460.423 863.735,467.726 860.891,479.603 Q 854.744,489.881 839.246,508.871" data-line="nan" stroke-width="45.0"></path><path d="M 571.648,420.177 L 814.278,422.287" data-line="2.0" stroke-width="45.0"></path><path d="M 393.6243175582099,1019.7512416930118 A 45.69626516663478,45.69626516663478 0 0,1 350.33635318172645,998.4561337805386" data-line="3.0" stroke-width="45.0"></path><path d="M 440.773,584.224 L 350.011,998.659" data-line="4.0" stroke-width="45.0"></path><path d="M 231.777,581.781 L 440.773,584.224" data-line="6.0" stroke-width="45.0"></path><path d="M 560.242,54.535 L 178.76,494.605" data-line="6.0" stroke-width="45.0"></path><path d="M 839.246,508.871 L 393.649,1020.0" data-line="8.0" stroke-width="45.0"></path><path d="M 637.735,127.923 L 575.479,393.515" data-line="8.0" stroke-width="45.0"></path></g></svg>