<svg xmlns="http://www.w3.org/2000/svg" width="1024" height="1024" viewBox="3.4759202003479004 90.2509994506836 1016.6900024414062 843.8783569335938" class="colorable-icon" data-export-recolorable-svg="true" overflow="visible"><g fill="none" stroke="black" stroke-width="45" stroke-linecap="round" stroke-linejoin="round"><path d="M 755.51,114.061 C 738.119,131.945 690.528,197.067 650.566,253.761 Q 593.413,339.805 544.853,419.486" data-line="nan" stroke-width="45.0"></path><path d="M 971.43,432.022 C 924.255,352.275 877.461,280.467 818.108,196.682 Q 776.657,141.144 755.51,114.061" data-line="nan" stroke-width="45.0"></path><circle cx="318.3430125596577" cy="874.5150117860422" r="59.61428041126205" data-line="0.0" stroke-width="45.0"></circle><path d="M 109.17839882998831,421.2386451847167 A 61.60106871763034,61.60106871763034 0 1,1 119.05673929508916,407.9094144679145" data-line="1.0" stroke-width="45.0"></path><path d="M 537.018,433.599 L 320.425,307.895" data-line="2.0" stroke-width="45.0"></path><path d="M 490.703,627.597 L 319.67,725.981" data-line="4.0" stroke-width="45.0"></path><path d="M 318.303,725.251 L 139.758,623.158" data-line="5.0" stroke-width="45.0"></path><path d="M 139.758,623.158 L 138.275,410.836" data-line="6.0" stroke-width="45.0"></path><path d="M 318.995,308.674 L 138.275,410.836" data-line="7.0" stroke-width="45.0"></path><path d="M 494.24324319467587,646.9295418529385 A 266.1802434517193,266.1802434517193 0 1,0 969.9247288302428,433.10690211777774" data-line="8.0" stroke-width="45.0"></path><circle cx="317.9041212295558" cy="158.29421504257806" r="68.04322195108846" data-line="9.0" stroke-width="45.0"></circle><path d="M 319.009,307.073 L 318.076,228.63" data-line="10.0" stroke-width="45.0"></path><path d="M 318.301,726.769 L 318.188,813.045" data-line="11.0" stroke-width="45.0"></path><path d="M 108.704,420.776 L 120.26,408.571" data-line="13.0" stroke-width="45.0"></path><path d="M 546.3522349647967,420.56005037644877 A 305.54333461299336,305.54333461299336 0 0,0 493.08161820490375,647.1036366806153" data-line="14.0" stroke-width="45.0"></path></g></svg>
