<svg xmlns="http://www.w3.org/2000/svg" width="1024" height="1024" viewBox="4.43802547454834 74.30470275878906 1015.0466918945312 875.8258056640625" class="colorable-icon" data-export-recolorable-svg="true" overflow="visible"><g fill="none" stroke="black" stroke-width="45" stroke-linecap="round" stroke-linejoin="round"><path d="M 492.497,177.143 C 472.832,155.401 449.213,134.515 423.785,116.321 C 400.951,103.272 374.823,91.641 347.969,82.908 C 319.779,77.043 291.955,74.447 258.678,74.54 C 232.512,77.551 205.395,83.467 176.794,92.99 C 149.223,105.752 124.274,120.902 101.341,138.452 C 79.747,159.058 60.707,181.509 45.454,203.756 C 32.046,228.148 21.024,254.472 13.032,280.667 C 7.144,310.234 4.255,340.989 4.447,369.793 C 7.433,398.628 13.201,427.001 21.192,453.29 C 33.256,482.642 47.761,510.082 65.296,536.886 Q 84.698,561.303 105.586,583.591" data-line="nan" stroke-width="45.0"></path><path d="M 393.37,869.852 C 435.721,911.966 457.317,931.488 464.233,936.29 C 475.085,942.265 482.313,945.326 493.202,948.58 C 505.642,950.411 518.007,950.562 528.795,949.34 C 540.454,946.271 551.475,941.852 564.118,934.671 Q 574.252,927.373 585.433,917.536" data-line="nan" stroke-width="45.0"></path><path d="M 935.215,563.288 Q 948.84,547.483 963.595,527.413" data-line="nan" stroke-width="45.0"></path><path d="M 963.595,527.413 C 979.507,501.456 991.522,477.603 1002.848,449.267 C 1011.062,421.804 1016.622,394.145 1019.461,368.303 C 1019.757,339.622 1017.278,312.706 1012.427,286.08 C 1004.471,258.486 993.906,232.037 981.578,208.457 C 965.595,184.175 948.733,163.367 927.848,142.451 C 907.337,125.79 885.005,111.097 859.199,97.763 C 835.632,88.383 805.085,79.755 778.033,75.213 C 748.926,73.346 720.136,74.353 691.147,78.273 C 663.472,85.104 637.584,94.423 613.633,105.897 C 591.653,119.321 569.505,136.018 551.673,152.347 Q 537.291,168.002 511.334,200.663" data-line="nan" stroke-width="45.0"></path><path d="M 492.497,177.143 L 511.334,200.663" data-line="1.0" stroke-width="45.0"></path><path d="M 438.395,354.297 L 344.498,541.453" data-line="3.0" stroke-width="45.0"></path><path d="M 183.751,541.72 L 344.498,541.453" data-line="4.0" stroke-width="45.0"></path><path d="M 592.546,687.192 L 438.395,354.297" data-line="5.0" stroke-width="45.0"></path><path d="M 672.492,541.845 L 592.546,687.192" data-line="6.0" stroke-width="45.0"></path><path d="M 822.886,541.857 L 672.492,541.845" data-line="7.0" stroke-width="45.0"></path><path d="M 105.586,583.591 L 393.37,869.852" data-line="7.0" stroke-width="45.0"></path><path d="M 585.433,917.536 L 935.215,563.288" data-line="9.0" stroke-width="45.0"></path></g></svg>